Coordinates
version=1
nRows=12
nColumns=42
inDegrees=yes

Units are S.I. units (second, meters, Newtons, ...)
If the header above contains a line with 'inDegrees', this indicates whether rotational values are in degrees (yes) or radians (no).

endheader
time	pelvis_tilt	pelvis_list	pelvis_rotation	pelvis_tx	pelvis_ty	pelvis_tz	hip_flexion_r	hip_adduction_r	hip_rotation_r	knee_angle_r	knee_adduction_r	knee_angle_r_beta	ankle_angle_r	subtalar_angle_r	mtp_angle_r	hip_flexion_l	hip_adduction_l	hip_rotation_l	knee_angle_l	knee_adduction_l	knee_angle_l_beta	ankle_angle_l	subtalar_angle_l	mtp_angle_l	lumbar_extension	lumbar_bending	lumbar_rotation	arm_flex_r	arm_add_r	arm_rot_r	elbow_flex_r	pro_sup_r	wrist_flex_r	wrist_dev_r	arm_flex_l	arm_add_l	arm_rot_l	elbow_flex_l	pro_sup_l	wrist_flex_l	wrist_dev_l
      1.80000000	     -1.66240344	     -6.77572769	      2.10144573	      0.73833456	      0.85340326	     -0.36717377	     13.39671931	      7.77839518	     -0.19064970	     13.94500615	      6.16866096	      0.24338627	      1.39088353	     -9.55431877	     -7.50904538	      3.76457459	    -13.84592494	      0.70748259	     61.07794663	     12.22710395	      1.06601127	     -3.95569226	    -16.91638541	     -7.50904538	     -5.51237789	      9.03869597	     -3.21512516	     -6.60795589	    -12.06778017	     -5.26521549	     23.56784609	     90.00000001	      0.00000000	      0.00000000	     -7.99434734	     -9.95139277	    -11.78577642	     42.84806961	     90.00000001	      0.00000000	      0.00000000
      1.81000000	     -1.51460235	     -6.53669744	      2.01651371	      0.75017213	      0.85526076	     -0.36679596	     11.96421148	      7.58624444	     -0.06085049	     13.24048106	      6.24187567	      0.23108999	      2.09765397	     -8.93391353	     -7.50886199	      5.63330883	    -13.56282970	      0.70673464	     63.30012278	     11.61939596	      1.10479556	     -2.76534481	    -17.19605798	     -7.50886199	     -5.74466939	      8.65798189	     -2.65016355	     -6.16379962	    -12.07664326	     -5.01526378	     23.57520259	     90.00000001	      0.00000000	      0.00000000	     -7.87216741	     -9.85759920	    -11.83491359	     41.68350056	     90.00000001	      0.00000000	      0.00000000
      1.82000000	     -1.70154750	     -6.43328267	      1.89417819	      0.76163322	      0.85659307	     -0.36629313	     10.89308083	      7.59486113	      0.10882849	     12.43279864	      6.17478727	      0.21699327	      2.60836630	     -8.31622165	     -7.50847486	      8.00273240	    -13.43268654	      0.68546694	     65.37857420	     11.00939092	      1.14107138	     -1.48926968	    -17.10564675	     -7.50847486	     -5.60917010	      8.40840571	     -2.10329251	     -5.73597784	    -12.17537736	     -4.46086739	     23.67422114	     90.00000001	      0.00000000	      0.00000000	     -7.66207470	     -9.65910490	    -12.26457343	     40.29955531	     90.00000001	      0.00000000	      0.00000000
      1.83000000	     -1.77720117	     -6.18499017	      1.82785952	      0.77296297	      0.85794970	     -0.36595343	      9.69240618	      7.39845257	      0.13689598	     11.61119224	      6.15535142	      0.20265353	      3.16729361	     -7.66375986	     -7.50805356	     10.19891380	    -13.06324832	      0.74701901	     66.97172685	     10.47650459	      1.16887714	      0.02490024	    -17.04186382	     -7.50805356	     -5.61632674	      7.99378975	     -1.63890909	     -5.22227274	    -12.25519393	     -3.92498761	     23.82225675	     90.00000001	      0.00000000	      0.00000000	     -7.48645041	     -9.54355014	    -12.58706356	     39.03909725	     90.00000001	      0.00000000	      0.00000000
      1.84000000	     -1.83591793	     -5.85111634	      1.78055677	      0.78411942	      0.85920671	     -0.36575901	      8.46701285	      7.08015191	      0.11691901	     10.75173464	      6.15772506	      0.18765317	      3.72643684	     -6.88064369	     -7.50777709	     12.34432923	    -12.52983597	      0.82640136	     68.13984634	      9.99511414	      1.18926467	      1.51765921	    -16.90682020	     -7.50777709	     -5.65921139	      7.48935543	     -1.21534406	     -4.63609294	    -12.32829159	     -3.53144480	     24.00529262	     90.00000001	      0.00000000	      0.00000000	     -7.29955835	     -9.46058489	    -12.86226030	     37.79879853	     90.00000001	      0.00000000	      0.00000000
      1.85000000	     -1.88090408	     -5.50158045	      1.74035287	      0.79506797	      0.86028726	     -0.36560322	      7.28700080	      6.74609703	     -0.01276086	      9.99901206	      6.13039709	      0.17451568	      4.24702299	     -6.20680233	     -7.50763984	     14.43915339	    -11.92500686	      0.88368003	     68.90603987	      9.53632835	      1.20263727	      3.03074242	    -16.88536365	     -7.50763984	     -5.74771056	      6.96380910	     -0.81821732	     -3.97322922	    -12.39241782	     -3.27187305	     24.24150369	     90.00000001	      0.00000000	      0.00000000	     -7.18284173	     -9.43577771	    -12.98925915	     36.79975051	     90.00000001	      0.00000000	      0.00000000
      1.86000000	     -2.03640189	     -5.15251406	      1.71127086	      0.80606106	      0.86106791	     -0.36550299	      6.16099907	      6.38011121	     -0.10195661	      9.07823592	      6.15673809	      0.15844511	      4.77961257	     -5.28338217	     -7.50735189	     16.58156208	    -11.32657906	      1.08231998	     69.26331496	      9.33281251	      1.20887290	      4.44908965	    -16.42268048	     -7.50735189	     -5.66851554	      6.43680326	     -0.49318045	     -3.35810563	    -12.52209176	     -2.65752516	     24.52292044	     90.00000001	      0.00000000	      0.00000000	     -6.93307232	     -9.30627445	    -13.66573670	     35.39550735	     90.00000001	      0.00000000	      0.00000000
      1.87000000	     -2.17520828	     -4.81470755	      1.68762957	      0.81687394	      0.86161557	     -0.36545085	      5.09481482	      6.01987822	     -0.26620494	      8.30351466	      6.18687595	      0.14492367	      5.27744910	     -4.56072009	     -7.50717667	     18.64946185	    -10.69546262	      1.21208523	     69.24079887	      9.10617160	      1.20847992	      5.77884444	    -16.21150047	     -7.50717667	     -5.63299480	      5.92649703	     -0.19150090	     -2.65982605	    -12.62679774	     -2.30119280	     24.84596173	     90.00000001	      0.00000000	      0.00000000	     -6.82828384	     -9.28218493	    -13.91835612	     34.37480908	     90.00000001	      0.00000000	      0.00000000
      1.88000000	     -2.32915497	     -4.51289511	      1.65728133	      0.82762528	      0.86190585	     -0.36533943	      4.09817122	      5.75497097	     -0.43257622	      7.62721401	      6.10403640	      0.13312000	      5.76402613	     -3.91383516	     -7.50704893	     20.64265295	    -10.10229617	      1.32657395	     68.81859249	      8.94492163	      1.20111103	      6.98874260	    -16.02341433	     -7.50704893	     -5.58631006	      5.44868382	      0.08872461	     -1.94329138	    -12.74905589	     -2.01212745	     25.20940294	     90.00000001	      0.00000000	      0.00000000	     -6.77330355	     -9.31010704	    -14.15413883	     33.44960563	     90.00000001	      0.00000000	      0.00000000
      1.89000000	     -2.49522807	     -4.23192959	      1.59102443	      0.83840093	      0.86197046	     -0.36525604	      3.09989665	      5.48242330	     -0.57877701	      6.91144021	      6.09638294	      0.12062739	      6.26586722	     -3.23944809	     -7.50692451	     22.52313266	     -9.54977312	      1.49761727	     68.00843667	      8.96539436	      1.18697114	      8.00891757	    -15.79487589	     -7.50692451	     -5.51369491	      5.00231903	      0.37180050	     -1.20150874	    -12.85777045	     -1.67324843	     25.61117471	     90.00000001	      0.00000000	      0.00000000	     -6.69635058	     -9.27807396	    -14.48264278	     32.47549659	     90.00000001	      0.00000000	      0.00000000
      1.90000000	     -2.49753368	     -4.20850566	      1.29551635	      0.84852218	      0.86181014	     -0.36466060	      2.35425847	      5.50659281	     -0.96205658	      7.02114201	      6.12809038	      0.12254205	      6.41876741	     -3.02171906	     -7.50685293	     24.26447412	     -9.50425903	      1.41405180	     67.14532132	      8.98599919	      1.17190693	      8.16348772	    -15.12905405	     -7.50685293	     -5.81195289	      4.82049028	      0.87289942	     -0.25759654	    -13.01051033	     -1.60091569	     26.17824764	     90.00000001	      0.00000000	      0.00000000	     -6.85123975	     -9.34658898	    -14.52506198	     32.36978595	     90.00000001	      0.00000000	      0.00000000
      1.91000000	     -2.43205651	     -3.66022822	      1.42971858	      0.86006957	      0.86191309	     -0.36524816	      0.69189787	      4.85962440	     -0.65442525	      5.52387657	      6.21610258	      0.09640983	      7.25795086	     -1.75407526	     -7.50659110	     25.37415020	     -8.53940979	      2.06529000	     65.13164327	      9.57312704	      1.13676162	      9.45339359	    -15.59136967	     -7.50659110	     -5.82628866	      4.14602578	      0.85516008	      0.38436809	    -13.22937159	     -0.57978439	     26.59569095	     90.00000001	      0.00000000	      0.00000000	     -6.39331708	     -9.14890332	    -15.88376211	     30.39940369	     90.00000001	      0.00000000	      0.00000000
